# xmcd
#
# Track frame offsets:
#	150
#	18385
#	29176
#	41007
#	52575
#	62172
#	75987
#	87300
#	99576
#	114375
#
# Disc length: 1695 seconds
#
# Revision: 0
# Processed by: cddbd v1.5.2PL0 Copyright (c) Steve Scherf et al.
# Submitted via: audiograbber 1.83.01
#
DISCID=75069d0a
DTITLE=Orion - Reborn
DYEAR=1979
DGENRE=Rock and Roll
TTITLE0=Honey
TTITLE1=Lover Please
TTITLE2=Got You On My Mind
TTITLE3=Mona Lisa
TTITLE4=Before The Next Teardrop Falls
TTITLE5=Ebony Eyes
TTITLE6=Washing Machine
TTITLE7=Baby, I Still Love You
TTITLE8=You Can Have Her
TTITLE9=Lonesome Angel
EXTD=
EXTT0=
EXTT1=
EXTT2=
EXTT3=
EXTT4=
EXTT5=
EXTT6=
EXTT7=
EXTT8=
EXTT9=
PLAYORDER=
